<svg viewBox="0 0 342.85155851775386 342.85155851775386" height="342.85155851775386" width="342.85155851775386"><g><path d="M0 171.426c0-94.676 76.75-171.426 171.426-171.426 94.676 0 171.426 76.75 171.426 171.426 0 94.676-76.75 171.426-171.426 171.426-94.676 0-171.426-76.75-171.426-171.426zM171.426 340.634c93.451 0 169.208-75.757 169.208-169.208 0-93.451-75.757-169.208-169.208-169.208-93.451 0-169.208 75.757-169.208 169.208 0 93.451 75.757 169.208 169.208 169.208z" data-fill-palette-color="tertiary" fill="#381ea9" stroke="transparent"></path><ellipse rx="164.56874808852186" ry="164.56874808852186" cx="171.42577925887693" cy="171.42577925887693" fill="#381ea9" stroke="transparent" stroke-width="0" fill-opacity="1" data-fill-palette-color="tertiary"></ellipse></g><g transform="matrix(1,0,0,1,64.84655864529837,122.24258883907643)"><svg viewBox="0 0 213.1584412271571 98.36638083960098" height="98.36638083960098" width="213.1584412271571"><g><svg viewBox="0 0 213.1584412271571 98.36638083960098" height="98.36638083960098" width="213.1584412271571"><g><svg viewBox="0 0 213.1584412271571 98.36638083960098" height="98.36638083960098" width="213.1584412271571"><g transform="matrix(1,0,0,1,0,73.77525286113233)"><svg viewBox="0 0 213.1584412271571 24.591127978468652" height="24.591127978468652" width="213.1584412271571"><g id="textblocktransform"><svg viewBox="0 0 213.1584412271571 24.591127978468652" height="24.591127978468652" width="213.1584412271571" id="textblock"><g><svg viewBox="0 0 213.1584412271571 24.591127978468652" height="24.591127978468652" width="213.1584412271571"><g transform="matrix(1,0,0,1,0,0)"><svg width="213.1584412271571" viewBox="3.75 -34.79999923706055 301.6199951171875 34.79999923706055" height="24.591127978468652" data-palette-color="#ffffff"><path d="M28.05-24.4Q28.05-21.75 26.8-19.4 25.55-17.05 22.8-15.58 20.05-14.1 15.75-14.1L15.75-14.1 9.45-14.1 9.45 0 3.75 0 3.75-34.75 15.75-34.75Q19.75-34.75 22.53-33.38 25.3-32 26.68-29.65 28.05-27.3 28.05-24.4L28.05-24.4ZM15.75-18.75Q19-18.75 20.6-20.23 22.2-21.7 22.2-24.4L22.2-24.4Q22.2-30.1 15.75-30.1L15.75-30.1 9.45-30.1 9.45-18.75 15.75-18.75ZM52.7-30.15L39.2-30.15 39.2-19.95 51.2-19.95 51.2-15.3 39.2-15.3 39.2-4.65 52.7-4.65 52.7 0 33.5 0 33.5-34.8 52.7-34.8 52.7-30.15ZM57.9-34.75L82.15-34.75 82.15-30.1 72.9-30.1 72.9 0 67.2 0 67.2-30.1 57.9-30.1 57.9-34.75ZM119.49-17.85Q122.29-17.35 124.24-14.9 126.19-12.45 126.19-9.35L126.19-9.35Q126.19-6.7 124.82-4.58 123.44-2.45 120.84-1.23 118.24 0 114.79 0L114.79 0 100.89 0 100.89-34.75 114.14-34.75Q117.69-34.75 120.24-33.55 122.79-32.35 124.09-30.33 125.39-28.3 125.39-25.8L125.39-25.8Q125.39-22.8 123.79-20.8 122.19-18.8 119.49-17.85L119.49-17.85ZM106.59-30.1L106.59-20.15 113.64-20.15Q116.44-20.15 118.02-21.43 119.59-22.7 119.59-25.1L119.59-25.1Q119.59-27.45 118.02-28.78 116.44-30.1 113.64-30.1L113.64-30.1 106.59-30.1ZM114.29-4.65Q117.19-4.65 118.84-6.05 120.49-7.45 120.49-9.95L120.49-9.95Q120.49-12.5 118.74-14 116.99-15.5 114.09-15.5L114.09-15.5 106.59-15.5 106.59-4.65 114.29-4.65ZM157.24 0L150.44 0 142.44-13.9 138.09-13.9 138.09 0 132.39 0 132.39-34.75 144.39-34.75Q148.39-34.75 151.16-33.35 153.94-31.95 155.31-29.6 156.69-27.25 156.69-24.35L156.69-24.35Q156.69-20.95 154.71-18.18 152.74-15.4 148.64-14.4L148.64-14.4 157.24 0ZM138.09-30.1L138.09-18.45 144.39-18.45Q147.59-18.45 149.21-20.05 150.84-21.65 150.84-24.35L150.84-24.35Q150.84-27.05 149.24-28.58 147.64-30.1 144.39-30.1L144.39-30.1 138.09-30.1ZM183.19-30.15L169.69-30.15 169.69-19.95 181.69-19.95 181.69-15.3 169.69-15.3 169.69-4.65 183.19-4.65 183.19 0 163.99 0 163.99-34.8 183.19-34.8 183.19-30.15ZM209.38-30.15L195.88-30.15 195.88-19.95 207.88-19.95 207.88-15.3 195.88-15.3 195.88-4.65 209.38-4.65 209.38 0 190.18 0 190.18-34.8 209.38-34.8 209.38-30.15ZM227.73-34.75Q233.28-34.75 237.45-32.63 241.63-30.5 243.91-26.53 246.18-22.55 246.18-17.25L246.18-17.25Q246.18-11.95 243.91-8.05 241.63-4.15 237.45-2.08 233.28 0 227.73 0L227.73 0 216.38 0 216.38-34.75 227.73-34.75ZM227.73-4.65Q233.83-4.65 237.08-7.95 240.33-11.25 240.33-17.25L240.33-17.25Q240.33-23.3 237.08-26.7 233.83-30.1 227.73-30.1L227.73-30.1 222.08-30.1 222.08-4.65 227.73-4.65ZM288.27 0L285.77-7.1 271.22-7.1 268.72 0 262.77 0 275.22-34.8 281.82-34.8 294.27 0 288.27 0ZM272.82-11.75L284.18-11.75 278.52-27.9 272.82-11.75ZM299.67-34.75L305.37-34.75 305.37 0 299.67 0 299.67-34.75Z" opacity="1" transform="matrix(1,0,0,1,0,0)" fill="#ffffff" class="wordmark-text-0" data-fill-palette-color="quaternary" id="text-0"></path></svg></g></svg></g></svg></g></svg></g><g transform="matrix(1,0,0,1,70.01804570228853,0)"><svg viewBox="0 0 73.12234982258006 67.96987773248736" height="67.96987773248736" width="73.12234982258006"><g><svg xmlns="http://www.w3.org/2000/svg" xmlns:xlink="http://www.w3.org/1999/xlink" version="1.0" x="0" y="0" viewBox="13.74041748046875 18.29694938659668 72.5190658569336 67.40910339355469" enable-background="new 0 0 100 100" xml:space="preserve" height="67.96987773248736" width="73.12234982258006" class="icon-icon-0" data-fill-palette-color="quaternary" id="icon-0"><g fill="#ffffff" data-fill-palette-color="quaternary"><g fill="#ffffff" data-fill-palette-color="quaternary"><path d="M37.406 40.596c2.149-0.979 4.372-1.99 6.708-2.64 2.294-0.638 7.031-1.963 6.162-5.879 2.369-0.111 7.472-0.306 11.722-0.169 2.972 0.097 10.074-0.008 11.877-3.067 0.461-0.782 0.781-2.098-0.311-3.928-0.85-1.426-2.243-1.49-3.26-1.536-1.201-0.054-2.389-0.065-3.804-0.065-1.697 0-3.443-0.236-5.133-0.465l-0.314-0.042c-3.603-0.486-7.339-1.116-11.105-1.874-1.459-0.293-2.913-0.659-4.32-1.012-4.254-1.069-8.657-2.173-13.465-1.315-2.717 0.485-5.262 1.523-7.724 2.527l-1.152 0.468c-2.11 0.848-4.302 1.631-6.42 2.388-0.824 0.294-1.647 0.588-2.468 0.886-0.519 0.189-0.787 0.763-0.598 1.282 0.189 0.519 0.762 0.788 1.282 0.598 0.817-0.297 1.637-0.59 2.457-0.883 2.137-0.763 4.347-1.552 6.493-2.415l1.161-0.472c2.366-0.965 4.812-1.962 7.321-2.41 4.39-0.785 8.391 0.221 12.626 1.285 1.429 0.359 2.906 0.73 4.412 1.034 3.809 0.766 7.588 1.404 11.233 1.895l0.314 0.042c1.754 0.237 3.569 0.482 5.4 0.483 1.388 0 2.55 0.011 3.712 0.063 1.035 0.047 1.375 0.127 1.635 0.563 0.713 1.196 0.406 1.716 0.305 1.887-0.96 1.627-5.904 2.223-10.089 2.084-4.869-0.16-10.81 0.113-12.65 0.208-1.407-1.904-3.846-1.988-5.13-1.684l-15.25 2.311c-0.546 0.083-0.921 0.593-0.839 1.138 0.083 0.546 0.595 0.924 1.139 0.839l15.324-2.325c0.306-0.068 3-0.594 3.658 2.041 0.441 1.765-1.575 2.713-4.794 3.608-2.431 0.676-4.726 1.721-6.944 2.731-1.1 0.5-2.237 1.019-3.363 1.477-1.538 0.627-3.324 1.316-5.063 1.565-2.978 0.425-6.109 0.283-9.138 0.144-1.369-0.063-2.785-0.127-4.175-0.139-0.584-0.025-1.004 0.439-1.008 0.991s0.439 1.004 0.991 1.009c1.353 0.012 2.75 0.075 4.1 0.137 1.54 0.07 3.106 0.142 4.678 0.142 1.613 0 3.232-0.075 4.835-0.305 1.964-0.28 3.887-1.021 5.535-1.692C35.132 41.631 36.288 41.105 37.406 40.596z" fill="#ffffff" data-fill-palette-color="quaternary"></path><path d="M86.239 83.933l-0.496-2.413c-2.08-10.111-4.983-20.197-7.542-28.857-0.295-0.999-0.588-1.998-0.878-2.998-0.103-0.354-0.392-0.623-0.753-0.7-0.363-0.077-0.734 0.051-0.972 0.333l-4.927 5.837c-0.573-2.149-1.047-3.899-1.348-4.954-1.825-6.389-6.061-6.475-6.241-6.475 0 0-5.86-0.018-9.321-0.018-3.914 0-6.409 3.261-6.528 3.42l-3.813 5.353-12.878 2.281c-0.506 0.09-0.862 0.549-0.823 1.061 0.019 0.242 0.036 0.561 0.057 0.94 0.309 5.582 1.009 10.889 4.014 11.91 2.83 0.962 5.824 1.227 8.718 1.484 0.603 0.053 1.206 0.106 1.806 0.166 0.24 2.646 1.015 10.832 1.697 13.833 0.105 0.464 0.518 0.778 0.974 0.779 0.073 0 0.148-0.008 0.223-0.025 0.539-0.123 0.876-0.658 0.753-1.197-0.771-3.393-1.718-14.275-1.728-14.385-0.041-0.475-0.412-0.855-0.885-0.908-0.882-0.098-1.772-0.177-2.663-0.255-2.777-0.246-5.649-0.5-8.252-1.386-1.42-0.483-2.315-3.89-2.66-10.127-0.001-0.026-0.003-0.051-0.004-0.076l12.402-2.197c0.258-0.046 0.488-0.191 0.641-0.404l4.035-5.666c0.02-0.026 1.988-2.601 4.914-2.601 3.439 0 9.249 0.018 9.3 0.018 0 0 0 0 0 0 0.12 0.004 2.949 0.159 4.339 5.025 0.319 1.118 0.837 3.031 1.458 5.368l-5.505 0.794c-2.611 0.286-3.766 2.367-4.785 4.203-0.29 0.523-0.564 1.017-0.862 1.456-0.091 0.134-0.191 0.308-0.299 0.499-0.136 0.24-0.419 0.74-0.516 0.817-0.058 0.016-0.113 0.038-0.167 0.064-0.088 0.043-2.171 1.056-3.612 2.016-0.3 0.2-0.469 0.546-0.442 0.906 0.022 0.303 0.615 7.438 6.148 8.167 3.272 0.431 5.6 0.544 6.804 0.571l0.847 9.206c0.047 0.519 0.483 0.908 0.995 0.908 0.03 0 0.062-0.001 0.093-0.004 0.55-0.05 0.955-0.537 0.903-1.088l-0.93-10.109c-0.048-0.524-0.503-0.922-1.02-0.907-0.028 0-2.752 0.056-7.431-0.56-3.173-0.417-4.099-4.272-4.339-5.756 1.136-0.696 2.496-1.374 2.796-1.521 0.792-0.279 1.263-1.11 1.61-1.723 0.079-0.139 0.149-0.266 0.215-0.364 0.348-0.513 0.657-1.069 0.955-1.608 1.041-1.874 1.778-3.023 3.288-3.189l5.77-0.832 1.284-0.185c0.243-0.035 0.464-0.158 0.621-0.344l0.018-0.021 4.628-5.483c0.119 0.406 0.239 0.812 0.358 1.217 2.547 8.621 5.437 18.659 7.501 28.694l0.496 2.412c0.111 0.541 0.638 0.891 1.18 0.779C86.001 85.003 86.35 84.474 86.239 83.933z" fill="#ffffff" data-fill-palette-color="quaternary"></path></g></g></svg></g></svg></g><g></g></svg></g></svg></g></svg></g></svg>